<svg xmlns="http://www.w3.org/2000/svg" width="931.452" height="352.236" xmlns:v="https://vecta.io/nano"><path d="M593.944 112.697h25.389a6.5 6.5 0 0 1 6.486 6.062l.258 3.783c.388 5.682 7.453 8.3 11.274 4.081 2.167-2.389 4.52-4.602 7.037-6.619q11.589-9.323 32.755-9.324a46.21 46.21 0 0 1 9.148.878 6.5 6.5 0 0 1 5.039 7.744l-6.192 28.973c-.4 1.867-1.571 3.477-3.223 4.433a6.75 6.75 0 0 1-5.45.583l-.079-.025a32.09 32.09 0 0 0-9.658-1.261q-11.758 0-20.241 4.957c-5.092 2.791-9.463 6.731-12.767 11.506q-4.281 6.551-4.28 10.751v94.287a6.5 6.5 0 0 1-6.5 6.5h-28.996a6.5 6.5 0 0 1-6.5-6.5V119.201a6.5 6.5 0 0 1 6.5-6.504zm144.299 165.939H719.01a10.82 10.82 0 0 1-10.82-10.82V121.164a10.82 10.82 0 0 1 10.82-10.817h19.233a10.82 10.82 0 0 1 10.82 10.817v146.653c-.001 5.975-4.845 10.819-10.82 10.819zm111.402-161.225c-45.183-.002-81.813 36.624-81.816 81.807s36.623 81.814 81.807 81.817 81.814-36.623 81.817-81.806c.001-21.698-8.617-42.508-23.959-57.852a81.81 81.81 0 0 0-57.849-23.966zm0 127.267c-25.101-.001-45.45-20.35-45.449-45.451s20.35-45.45 45.451-45.449 45.45 20.35 45.449 45.451c.001 12.054-4.788 23.615-13.312 32.139s-20.085 13.311-32.139 13.31zM487.943 88.059v22.653c-.001 2.454-1.99 4.443-4.444 4.444h-24.771c-2.454 0-4.444 1.99-4.444 4.444v27.173c0 2.454 1.99 4.444 4.444 4.444h22.367c2.454 0 4.444 1.99 4.444 4.444v86.418a4.34 4.34 0 0 0 .115 1.011c1.049 4.4 9.646 35.548 43.159 35.548 21.591 0 31.117-1.723 35.285-3.106 1.909-.643 3.141-2.496 2.994-4.505l-1.915-28.722a4.44 4.44 0 0 0-4.834-4.13l-21.272 1.935a4.46 4.46 0 0 1-1.363-.087c-2.923-.641-13.7-3.563-13.7-11.876v-74.891c.001-2.455 1.991-4.444 4.446-4.444h27.173c2.454 0 4.444-1.99 4.444-4.444v-24.769c0-2.454-1.99-4.444-4.444-4.444h-24.775c-2.454-.001-4.443-1.99-4.444-4.444V63.793c-.029-1.7-1.33-3.107-3.022-3.27l-5.225-.411a27.66 27.66 0 0 0-30.218 27.947zm240.783-51.274h0A25.73 25.73 0 0 0 703 62.396h0v.114h0v16.617a9.11 9.11 0 0 0 9.109 9.109h16.731a25.73 25.73 0 0 0 25.611-25.724h0c.001-6.823-2.71-13.367-7.534-18.192s-11.368-7.535-18.191-7.535z" fill="#0d2c4f"/><path d="M176.118 0h0C79.158.001.438 78.375.01 175.334H0v.784h0v113.76a62.36 62.36 0 0 0 62.359 62.359H176.9v-.01c96.96-.427 175.336-79.148 175.336-176.109h0A176.12 176.12 0 0 0 176.118 0z" fill="#00dbaa"/><path d="M287.351 200.926c2.881-10.195-.135-21.146-7.831-28.427a23.39 23.39 0 0 1-6.636-12.882c-5.998-32.686-27.168-60.578-57.037-75.146-3.282-1.581-7.088-1.661-10.434-.222a12.58 12.58 0 0 0-7.012 7.729h0c-1.907 6.07.94 12.618 6.68 15.363a79.21 79.21 0 0 1 39.877 45.124c2.427 7.149.483 15.056-4.982 20.264a28.54 28.54 0 1 0 47.376 28.2zm-168.652 75.037a22.91 22.91 0 0 1 14.99.232c33.079 12.331 70.148 7.115 98.541-13.864a11.48 11.48 0 0 0 1.753-16.964h0a14.14 14.14 0 0 0-18.577-2.042 78.9 78.9 0 0 1-60.028 12.79q-3.2-.609-6.282-1.463a16.01 16.01 0 0 1-11.116-12.17 28.56 28.56 0 1 0-19.284 33.483zm-36.885-80.277a11.92 11.92 0 0 0 9.375-12.379 79.35 79.35 0 0 1 25.162-62.92 14.37 14.37 0 0 1 15.059-2.626c2.089.812 4.267 1.373 6.488 1.669a28.57 28.57 0 1 0 .541-56.7c-12.456 1.174-22.456 10.837-24.784 23.128h0a13.7 13.7 0 0 1-5.365 8.482 104.55 104.55 0 0 0-42.393 89.22 13.13 13.13 0 0 0 15.917 12.126z" fill="#0d2c4f"/></svg>