<svg xmlns="http://www.w3.org/2000/svg" width="258.663" height="258.663" xmlns:v="https://vecta.io/nano"><path d="M129.332 0h0C58.13.001.322 57.555.008 128.756H0v.575h0v83.539a45.79 45.79 0 0 0 45.793 45.793h84.114v-.008c71.201-.314 128.754-58.122 128.756-129.323h0A129.33 129.33 0 0 0 129.332 0z" fill="#00dbaa"/><path d="M211.015 147.549a20.91 20.91 0 0 0-5.751-20.875c-2.585-2.558-4.291-5.87-4.873-9.46-4.404-24.003-19.951-44.485-41.885-55.183a9.24 9.24 0 0 0-12.811 5.512h0a9.39 9.39 0 0 0 4.905 11.282 58.17 58.17 0 0 1 29.283 33.137c1.782 5.25.354 11.056-3.659 14.881a20.96 20.96 0 1 0 34.79 20.706zm-123.85 55.103c3.585-1.179 7.462-1.119 11.008.171 24.292 9.055 51.514 5.224 72.364-10.183a8.43 8.43 0 0 0 1.288-12.457h0c-3.521-3.863-9.366-4.506-13.642-1.5a57.94 57.94 0 0 1-44.081 9.393q-2.348-.447-4.613-1.074c-4.163-1.242-7.302-4.678-8.163-8.937a20.97 20.97 0 1 0-14.161 24.588zM60.079 143.7a8.75 8.75 0 0 0 6.885-9.091 58.27 58.27 0 0 1 18.478-46.205 10.55 10.55 0 0 1 11.059-1.929 20.69 20.69 0 0 0 4.765 1.226 20.98 20.98 0 1 0 .4-41.639 20.78 20.78 0 0 0-18.2 16.984h0a10.06 10.06 0 0 1-3.94 6.229C58.835 84.526 47.15 109.12 48.395 134.794a9.64 9.64 0 0 0 11.689 8.907z" fill="#0d2c4f"/></svg>