<svg xmlns="http://www.w3.org/2000/svg" width="352.238" height="352.237" viewBox="0 0 352.238 352.237"><g transform="translate(-339.272 -551.881)"><path d="M1854.9,14580.236H1740.358a62.309,62.309,0,0,1-62.359-62.359v-114.543h.011a177.33,177.33,0,0,1,3.709-35.356,175.19,175.19,0,0,1,26.62-62.706,176.62,176.62,0,0,1,77.4-63.5,175.165,175.165,0,0,1,32.981-10.209,177.824,177.824,0,0,1,70.895.019,175.136,175.136,0,0,1,62.976,26.5,176.624,176.624,0,0,1,63.809,77.487,175.217,175.217,0,0,1,10.262,33.059,177.835,177.835,0,0,1,.019,70.895,175.158,175.158,0,0,1-26.366,62.84,176.643,176.643,0,0,1-77.131,63.815,175.236,175.236,0,0,1-32.922,10.344,177.384,177.384,0,0,1-35.357,3.709v.01Zm-50.927-77.42a21.981,21.981,0,0,1,7.717,1.379,104.938,104.938,0,0,0,36.6,6.6h.018a103.552,103.552,0,0,0,61.924-20.466,11.612,11.612,0,0,0,4.657-8.174,11.277,11.277,0,0,0-2.9-8.79,14.139,14.139,0,0,0-18.574-2.042,78.894,78.894,0,0,1-60.029,12.793c-2.1-.4-4.211-.892-6.283-1.464a15.09,15.09,0,0,1-7.212-4.51,17.141,17.141,0,0,1-3.9-7.66,28.579,28.579,0,0,0-24.9-22.124,27.791,27.791,0,0,0-2.941-.155,28.678,28.678,0,0,0-27.24,20.039,28.548,28.548,0,0,0,21.907,36.544,28.717,28.717,0,0,0,5.34.5,28.21,28.21,0,0,0,8.553-1.328A24.042,24.042,0,0,1,1803.973,14502.816Zm84.433-191.6a12.576,12.576,0,0,0-12,8.767,12.721,12.721,0,0,0,6.678,15.361,78.78,78.78,0,0,1,24.5,18.742,79.423,79.423,0,0,1,15.379,26.383,18.952,18.952,0,0,1,.474,10.835,19.875,19.875,0,0,1-5.454,9.43,28.543,28.543,0,0,0,17.805,48.915c.735.056,1.46.084,2.155.084a28.529,28.529,0,0,0,19.584-49.229,23.274,23.274,0,0,1-6.638-12.885,104.721,104.721,0,0,0-57.035-75.144A12.367,12.367,0,0,0,1888.406,14311.212Zm-68.979-20.626c-.989,0-1.994.048-2.989.142-12.232,1.153-22.423,10.663-24.783,23.126a13.676,13.676,0,0,1-5.364,8.481,104.56,104.56,0,0,0-42.4,89.222,13.082,13.082,0,0,0,13.1,12.43,13.291,13.291,0,0,0,2.814-.3,11.855,11.855,0,0,0,9.375-12.379,79.041,79.041,0,0,1,25.16-62.923,13.946,13.946,0,0,1,9.521-3.674,15.211,15.211,0,0,1,5.54,1.051,28.278,28.278,0,0,0,6.488,1.668,27.977,27.977,0,0,0,3.726.25,28.876,28.876,0,0,0,28.219-23.778,28.569,28.569,0,0,0-28.414-33.315Z" transform="translate(-1338.726 -13676.118)"/></g></svg>