<svg xmlns="http://www.w3.org/2000/svg" width="239.412" height="129.399" viewBox="0 0 239.412 129.399"><g transform="translate(-1675.074 -341.1)"><path d="M50.569,10.535V23.178A10.539,10.539,0,0,1,40.034,33.713H21.07A10.539,10.539,0,0,1,10.535,23.178V10.535A10.539,10.539,0,0,1,21.07,0H40.034A10.539,10.539,0,0,1,50.569,10.535ZM14.749,23.178a6.342,6.342,0,0,0,1.622,4.235L27.413,16.372a5.6,5.6,0,0,1,7.733,0l2.191,2.191a1.285,1.285,0,0,0,1.791,0l7.227-7.227v-.8a6.34,6.34,0,0,0-6.321-6.321H21.07a6.34,6.34,0,0,0-6.321,6.321Zm31.606,0V17.3L42.1,21.555a5.6,5.6,0,0,1-7.733,0l-2.191-2.191a1.285,1.285,0,0,0-1.791,0L20.291,29.457a4.708,4.708,0,0,0,.78.042H40.034A6.34,6.34,0,0,0,46.355,23.178ZM35.82,37.927H10.535a6.34,6.34,0,0,1-6.321-6.321V18.963a6.242,6.242,0,0,1,1.622-4.214,2.1,2.1,0,0,0-3.139-2.8A10.557,10.557,0,0,0,0,18.984V31.627A10.539,10.539,0,0,0,10.535,42.162H35.82a2.107,2.107,0,0,0,0-4.214Z" transform="translate(1676.546 356.354) rotate(2)"/><path d="M18.963,11.589a3.161,3.161,0,1,1,3.161,3.161A3.156,3.156,0,0,1,18.963,11.589Z" transform="translate(1676.546 356.354) rotate(2)" fill="#6ca2ff"/><path d="M1695.838,386.519l10.418-9.78a1.231,1.231,0,0,1,1.93.268,21.849,21.849,0,0,0,2.421,2.556c.46.383,4.051,2.8,7.093,0s4.547-4.277,4.547-4.277l.243-5.98-1.009.92-6.317,5.931a1.424,1.424,0,0,1-2.07,0,29.008,29.008,0,0,0-2.486-2.632,5.959,5.959,0,0,0-7.232.115c-1.993,1.829-11.435,10.669-11.435,10.669a4.871,4.871,0,0,0,1.726,1.559A8.87,8.87,0,0,0,1695.838,386.519Z" fill="#6ca2ff"/><path d="M42.141,22.092V40.034A10.548,10.548,0,0,1,31.606,50.569H10.535A10.548,10.548,0,0,1,0,40.034v-29.5A10.548,10.548,0,0,1,10.535,0h9.513a14.661,14.661,0,0,1,10.43,4.319l7.341,7.345A14.646,14.646,0,0,1,42.141,22.092ZM27.5,7.3a10.556,10.556,0,0,0-2.215-1.643v9.094a2.107,2.107,0,0,0,2.107,2.107h9.094a10.5,10.5,0,0,0-1.646-2.212ZM37.927,22.092c0-.348-.067-.681-.1-1.022H27.392a6.321,6.321,0,0,1-6.321-6.321V4.313c-.341-.032-.676-.1-1.022-.1H10.535a6.321,6.321,0,0,0-6.321,6.321v29.5a6.321,6.321,0,0,0,6.321,6.321h21.07a6.321,6.321,0,0,0,6.321-6.321Z" transform="translate(1785.086 341.1) rotate(8)"/><path d="M8699.521,6850.63l16.615,2.363" transform="translate(-6906 -6478.583)" fill="#fff" stroke="#6ca2ff" stroke-linecap="round" stroke-width="4.2"/><path d="M8699.341,6849.978l10.447,1.48" transform="translate(-6907 -6469.583)" fill="#fff" stroke="#6ca2ff" stroke-linecap="round" stroke-width="4.2"/><path d="M47.522,1.945a8.382,8.382,0,0,0-6.934-1.8L21.237,3.776A10.535,10.535,0,0,0,12.642,14.13V34.884a8.342,8.342,0,0,0-4.214-1.172,8.428,8.428,0,1,0,8.428,8.428V22.916A4.214,4.214,0,0,1,20.3,18.774l23.563-4.425a2.107,2.107,0,0,1,2.5,2.086V28.572a8.342,8.342,0,0,0-4.214-1.18,8.428,8.428,0,1,0,8.428,8.428V8.428a8.4,8.4,0,0,0-3.047-6.483ZM8.428,46.355a4.214,4.214,0,1,1,4.214-4.214A4.214,4.214,0,0,1,8.428,46.355Zm34.654-36.14L19.518,14.631a8.428,8.428,0,0,0-2.661.995v-1.5a6.321,6.321,0,0,1,5.157-6.214L41.365,4.288a4.214,4.214,0,0,1,4.989,4.14V10.5a6.226,6.226,0,0,0-3.272-.287Zm-.942,29.819a4.214,4.214,0,1,1,4.214-4.214A4.214,4.214,0,0,1,42.141,40.034Z" transform="translate(1879.998 399.027) rotate(47)"/><path d="M8781.462,6904.946s2.054-1.669,5.41.909,18.621,13.82,18.621,13.82,1.584,1.684,0,3.142l4.455-4.16a7.378,7.378,0,0,0-1.558-2.218c-.947-.833-20.124-14.818-20.124-14.818a6.376,6.376,0,0,0-2.342-1.036Z" transform="translate(-6906 -6478.583)" fill="#6ca2ff"/></g></svg>