<svg width="1223" height="1118" viewBox="0 0 1223 1118" fill="none" xmlns="http://www.w3.org/2000/svg">
<g filter="url(#filter0_f_314_36)">
<path d="M1020 663C1020 889.437 1060.44 967 834 967C607.563 967 200 889.437 200 663C200 436.563 209.063 324 435.5 324C661.937 324 1020 436.563 1020 663Z" fill="url(#paint0_linear_314_36)"/>
</g>
<g filter="url(#filter1_f_314_36)">
<path d="M1103 383.999C1103 549.685 968.686 683.999 803 683.999C637.315 683.999 409.5 362.185 409.5 196.5C409.5 30.8144 762.315 130.5 928 130.5C1093.69 130.5 1103 218.314 1103 383.999Z" fill="url(#paint1_linear_314_36)"/>
</g>
<defs>
<filter id="filter0_f_314_36" x="0" y="124" width="1222.8" height="1043" filterUnits="userSpaceOnUse" color-interpolation-filters="sRGB">
<feFlood flood-opacity="0" result="BackgroundImageFix"/>
<feBlend mode="normal" in="SourceGraphic" in2="BackgroundImageFix" result="shape"/>
<feGaussianBlur stdDeviation="100" result="effect1_foregroundBlur_314_36"/>
</filter>
<filter id="filter1_f_314_36" x="309.5" y="0.76709" width="893.501" height="783.232" filterUnits="userSpaceOnUse" color-interpolation-filters="sRGB">
<feFlood flood-opacity="0" result="BackgroundImageFix"/>
<feBlend mode="normal" in="SourceGraphic" in2="BackgroundImageFix" result="shape"/>
<feGaussianBlur stdDeviation="50" result="effect1_foregroundBlur_314_36"/>
</filter>
<linearGradient id="paint0_linear_314_36" x1="611" y1="324" x2="611" y2="901" gradientUnits="userSpaceOnUse">
<stop stop-color="#75FFDE"/>
<stop offset="1" stop-color="#CFFF92" stop-opacity="0.46"/>
</linearGradient>
<linearGradient id="paint1_linear_314_36" x1="680.5" y1="101" x2="756" y2="647" gradientUnits="userSpaceOnUse">
<stop stop-color="#26F9D3"/>
<stop offset="1" stop-color="#DAFF44" stop-opacity="0"/>
</linearGradient>
</defs>
</svg>
