<svg xmlns="http://www.w3.org/2000/svg" width="419.062" height="246.736" viewBox="0 0 419.062 246.736">
  <g id="Group_986" data-name="Group 986" transform="translate(-1022.938 -338.14)">
    <path id="Path_909" data-name="Path 909" d="M8176.042,8275.188s28.51-82.831-48.924-132.061-126.217,0-126.217,0-63.36,50.343-27.847,110.046c0,0,15.367,26.8,27.847,32.769" transform="translate(-6886 -7779)" fill="none" stroke="#6ca2ff" stroke-linecap="round" stroke-width="8"/>
    <path id="Path_910" data-name="Path 910" d="M8082.1,8281.659s30.532-28.8,18.722-62.956-46.774-34.151-46.774-34.151-32.932-1.77-38.624,31.3,21.142,39.437,21.142,39.437,29.272,6.5,33.887-16.669-14.636-27.769-14.636-27.769-19.373-3.129-20.593,12.727,12.868,15.855,12.868,15.855,17.34-4.085,5.956-15.855" transform="translate(-6886 -7779)" fill="none" stroke="#6ca2ff" stroke-linecap="round" stroke-width="8"/>
    <g id="Group_991" data-name="Group 991">
      <path id="Path_924" data-name="Path 924" d="M7995.748,8282.088s-5.143,10.185-28.459,15.327a186.908,186.908,0,0,0-40.94,14.229s-9.493,5.692-12.2,10.164,0,8.944,0,8.944,16.792,16.1,60.171,22.076,60.11,6.789,60.11,6.789,28.317.936,53.93-1.5,40.33-3.517,40.33-3.517,23.419,0,37.933,1.626,22.9,1.782,33.874-2.964,21.36-7.991,31.117-18.439,24.129-32.931,27.788-44.863,12.442-30.332,10.241-45.091-15.12-22.7-15.12-22.7-12.269-6.819-22.288,1.769-12.991,15.637-12.991,15.637-15.481,27.834-37.613,37.132-28.543,6.325-42.617,4.762-19.521-3.574-26.162-3.816-10.534-1.8-19.309,0-22.277,10.953-22.277,10.953-13.52,12-35.41,8.811c.173.025.086.013,0,0l-9.861-1.492S8006.212,8290.961,7995.748,8282.088Z" transform="translate(-6886 -7779)" fill="none" stroke="#0d2c4f" stroke-width="8"/>
    </g>
    <g id="Group_990" data-name="Group 990">
      <path id="Path_925" data-name="Path 925" d="M8247.2,8231.641s-5.334-37.541,24.061-51.506" transform="translate(-6886 -7779)" fill="none" stroke="#6ca2ff" stroke-linecap="round" stroke-width="8"/>
      <g id="Ellipse_273" data-name="Ellipse 273" transform="translate(1384 387)" fill="none" stroke="#6ca2ff" stroke-width="8">
        <circle cx="13" cy="13" r="13" stroke="none"/>
        <circle cx="13" cy="13" r="9" fill="none"/>
      </g>
      <path id="Path_926" data-name="Path 926" d="M8261.108,8222.552s3.2-3.891,11.139-12.9c7.357-8.352,18.81-16.3,34.653-14.354" transform="translate(-6886 -7779)" fill="none" stroke="#6ca2ff" stroke-width="8"/>
      <g id="Ellipse_274" data-name="Ellipse 274" transform="translate(1416 406)" fill="none" stroke="#6ca2ff" stroke-width="8">
        <circle cx="13" cy="13" r="13" stroke="none"/>
        <circle cx="13" cy="13" r="9" fill="none"/>
      </g>
      <g id="Group_990-2" data-name="Group 990">
        <path id="Path_911" data-name="Path 911" d="M8218.974,8258.27s5.814,8.462,13.927,0" transform="translate(-6867 -7777)" fill="none" stroke="#0d2c4f" stroke-linecap="round" stroke-width="8"/>
        <path id="Path_912" data-name="Path 912" d="M8217.526,8261.719s9.372,12.055,21.015-3.449" transform="translate(-6860.824 -7760)" fill="none" stroke="#0d2c4f" stroke-linecap="round" stroke-width="8"/>
      </g>
    </g>
  </g>
</svg>
