<svg xmlns="http://www.w3.org/2000/svg" xmlns:xlink="http://www.w3.org/1999/xlink" width="88.66" height="24.18" viewBox="0 0 88.66 24.18"><defs><linearGradient id="a" x1="-0.027" y1="0.812" x2="0.818" y2="-0.443" gradientUnits="objectBoundingBox"><stop offset="0" stop-color="#00a14b"/><stop offset="1" stop-color="#7fdd02"/></linearGradient></defs><path d="M10494.237,5744.585a2.017,2.017,0,0,1-1.723-1.278,4.091,4.091,0,0,1-.062-3.309l4.246-6.509-35.921,5.357c-1.143.271-2.228-.84-2.416-2.476s.59-3.178,1.736-3.445l40.5-6.425a1.916,1.916,0,0,1,2.091,1.3,4.1,4.1,0,0,1,.035,3.25l-4.085,6.139,45.131-13.659c1.139-.342,2.254.691,2.494,2.312s-.484,3.214-1.62,3.558l-49.969,15.123A1.519,1.519,0,0,1,10494.237,5744.585Z" transform="matrix(0.999, 0.035, -0.035, 0.999, -10251.479, -6084.967)" fill="url(#a)"/></svg>